<svg width="277" height="64" viewBox="0 0 277 64" fill="none" xmlns="http://www.w3.org/2000/svg">
<path fill-rule="evenodd" clip-rule="evenodd" d="M0 4.12903C0 1.84863 1.87905 0 4.19697 0C6.51489 0 8.39394 1.84863 8.39394 4.12903V28.9032C8.39394 34.6042 13.0916 39.2258 18.8864 39.2258C24.6812 39.2258 29.3788 34.6042 29.3788 28.9032L29.379 28.9032V4.12903C29.379 1.84863 31.258 0 33.5759 0C35.8938 0 37.7729 1.84863 37.7729 4.12903V28.9032C37.7729 34.6042 42.4705 39.2258 48.2653 39.2258C54.0418 39.2258 58.728 34.6335 58.7576 28.9574L58.7574 28.935L58.7573 28.9032V4.12903C58.7573 1.84863 60.6363 0 62.9542 0C65.2722 0 67.1512 1.84863 67.1512 4.12903V28.9032L67.1517 28.9032C67.1517 39.165 58.696 47.4839 48.2653 47.4839C42.3323 47.4839 37.0382 44.7924 33.5758 40.5828C30.1134 44.7924 24.8194 47.4839 18.8864 47.4839C8.45571 47.4839 0 39.165 0 28.9032V4.12903ZM83.9397 43.3548C83.9397 45.6352 82.0606 47.4838 79.7427 47.4838C77.4248 47.4838 75.5458 45.6352 75.5458 43.3548L75.5458 18.5806L75.5453 18.5807C75.5453 8.31885 84.001 1.64726e-05 94.4316 1.73698e-05C104.862 1.82669e-05 113.318 8.31886 113.318 18.5807C113.318 20.8611 111.439 22.7097 109.121 22.7097C106.803 22.7097 104.924 20.8611 104.924 18.5807C104.924 12.8797 100.226 8.25808 94.4316 8.25808C88.6368 8.25808 83.9392 12.8797 83.9392 18.5807L83.9397 18.5806V43.3548ZM199.356 8.25806C191.243 8.25806 184.666 14.7283 184.666 22.7097C184.666 30.6911 191.243 37.1613 199.356 37.1613C207.468 37.1613 214.045 30.6911 214.045 22.7097C214.045 14.7283 207.468 8.25806 199.356 8.25806ZM176.272 22.7097C176.272 10.1675 186.607 0 199.356 0C212.104 0 222.439 10.1675 222.439 22.7097C222.439 35.2519 212.104 45.4194 199.356 45.4194C193.776 45.4194 188.658 43.4714 184.667 40.2289V59.871C184.667 62.1514 182.788 64 180.47 64C178.152 64 176.273 62.1514 176.273 59.871V24.7742C176.273 24.5658 176.288 24.3611 176.319 24.1611C176.288 23.6812 176.272 23.1972 176.272 22.7097ZM130.106 22.7097C130.106 14.7283 136.683 8.25806 144.796 8.25806C152.874 8.25806 159.43 14.6738 159.485 22.6087V41.2903C159.485 43.5707 161.364 45.4194 163.682 45.4194C166 45.4194 167.879 43.5707 167.879 41.2903V22.7097H167.879C167.879 22.6849 167.879 22.6602 167.879 22.6355L167.879 22.5859V20.6452H167.785C166.725 9.07047 156.837 0 144.796 0C132.047 0 121.712 10.1675 121.712 22.7097C121.712 35.2519 132.047 45.4194 144.796 45.4194C147.114 45.4194 148.993 43.5707 148.993 41.2903C148.993 39.0099 147.114 37.1613 144.796 37.1613C136.683 37.1613 130.106 30.6911 130.106 22.7097ZM253.917 8.25806C245.804 8.25806 239.227 14.7283 239.227 22.7097C239.227 30.6911 245.804 37.1613 253.917 37.1613C262.029 37.1613 268.606 30.6911 268.606 22.7097C268.606 14.7283 262.029 8.25806 253.917 8.25806ZM230.833 22.7097C230.833 10.1675 241.168 0 253.917 0C266.665 0 277 10.1675 277 22.7097C277 35.2519 266.665 45.4194 253.917 45.4194C248.336 45.4194 243.219 43.4713 239.228 40.2288V59.871C239.228 62.1514 237.348 64 235.031 64C232.713 64 230.834 62.1514 230.834 59.871V24.7742C230.834 24.5657 230.849 24.3609 230.88 24.1608C230.849 23.681 230.833 23.1971 230.833 22.7097Z" fill="black"/>
</svg>
